<svg width="42" height="32" viewBox="0 0 42 32" fill="none" xmlns="http://www.w3.org/2000/svg">
<path d="M0 24V8C0 5.79086 1.83454 4 4.09756 4H37.9024C40.1655 4 42 5.79086 42 8V24C42 26.2091 40.1661 28 37.903 28H29.1951C24.5854 28 25.6098 31.5 21 31.5C16.3902 31.5 17.4146 28 12.8049 28H4.09696C1.83394 28 0 26.2091 0 24Z" fill="#A568CC"/>
<path d="M15.5 0C17.7957 0 19.576 1.56847 20.5102 2.77647C20.7469 3.08251 21.2531 3.08251 21.4898 2.77647C22.424 1.56847 24.2043 0 26.5 0H34.0007C35.6576 0 37 1.34315 37 3V20C37 21.6569 35.6576 23 34.0007 23H27C24.8504 23 22.5403 24.6045 21.3631 25.6578C21.1574 25.842 20.8426 25.842 20.6369 25.6578C19.4597 24.6045 17.1496 23 15 23H7.99928C6.34243 23 5 21.6569 5 20V3C5 1.34315 6.34245 0 7.9993 0H15.5Z" fill="white"/>
<mask id="mask0_9_797" style="mask-type:alpha" maskUnits="userSpaceOnUse" x="5" y="0" width="32" height="26">
<path d="M15.5 0C17.7957 0 19.576 1.56847 20.5102 2.77647C20.7469 3.08251 21.2531 3.08251 21.4898 2.77647C22.424 1.56847 24.2043 0 26.5 0H34.0007C35.6576 0 37 1.34315 37 3V20C37 21.6569 35.6576 23 34.0007 23H27C24.8504 23 22.5403 24.6045 21.3631 25.6578C21.1574 25.842 20.8426 25.842 20.6369 25.6578C19.4597 24.6045 17.1496 23 15 23H7.99928C6.34243 23 5 21.6569 5 20V3C5 1.34315 6.34245 0 7.9993 0H15.5Z" fill="#D9D9D9"/>
</mask>
<g mask="url(#mask0_9_797)">
<rect x="19.5" y="1" width="3" height="26" fill="#DBC3EB"/>
</g>
</svg>
