<svg width="19" height="24" viewBox="0 0 19 24" fill="none" xmlns="http://www.w3.org/2000/svg">
<path fill-rule="evenodd" clip-rule="evenodd" d="M10.9919 0.0830498C11.5954 0.292553 11.9999 0.861272 11.9999 1.50008V8.15434L17.4946 9.65287C17.9761 9.78419 18.3607 10.1464 18.5207 10.6191C18.6807 11.0919 18.5951 11.6133 18.2923 12.01L9.59238 23.4099C9.20851 23.9129 8.55028 24.121 7.94707 23.9299C7.34386 23.7389 6.92539 23.1899 6.90108 22.5576L6.64338 15.8575L1.10533 14.3471C0.61962 14.2147 0.232756 13.8474 0.0752817 13.3692C-0.0821923 12.891 0.0107288 12.3657 0.32269 11.9705L9.32263 0.570617C9.71846 0.0692295 10.3884 -0.126453 10.9919 0.0830498Z" fill="#FFD900"/>
<path d="M6.29997 10.8L1.9914 12.7389C1.82167 12.8152 1.83787 13.0613 2.01614 13.1148L6.29997 14.4V10.8Z" fill="#F7C100"/>
<path d="M11.9121 12.8066L16.5386 11.1359C16.7233 11.0692 16.7128 10.8046 16.5234 10.7528L11.9715 9.50714L11.9121 12.8066Z" fill="#FFEF8F"/>
</svg>
