<svg width="37" height="31" viewBox="0 0 37 31" fill="none" xmlns="http://www.w3.org/2000/svg">
<path d="M12.6713 18.7535L24.3284 11.6579" stroke="#C9C7C7" stroke-width="3" stroke-linecap="round"/>
<path fill-rule="evenodd" clip-rule="evenodd" d="M18.7691 0.534923C20.7134 -0.576094 23.1902 0.0993989 24.3012 2.04368L32.4105 16.235C33.5215 18.1793 32.8461 20.6561 30.9018 21.7671C28.9575 22.8781 26.4807 22.2026 25.3697 20.2583L17.2603 6.06703C16.1493 4.12275 16.8248 1.64594 18.7691 0.534923ZM5.55262 8.66672C7.48448 7.53425 9.96861 8.18229 11.1011 10.1142L19.7172 24.8123C20.8497 26.7442 20.2017 29.2283 18.2698 30.3608C16.3379 31.4932 13.8538 30.8452 12.7213 28.9133L4.10519 14.2152C2.97272 12.2833 3.62075 9.7992 5.55262 8.66672Z" fill="#1CB0F6"/>
<path fill-rule="evenodd" clip-rule="evenodd" d="M27.1506 1.97688C28.8584 1.01625 31.0216 1.62194 31.9822 3.32971L36.5437 11.439C37.5043 13.1468 36.8986 15.31 35.1909 16.2706C33.4831 17.2312 31.3199 16.6255 30.3593 14.9178L25.7978 6.80844C24.8372 5.10066 25.4429 2.9375 27.1506 1.97688ZM1.74957 15.1887C3.43846 14.1953 5.61292 14.759 6.60638 16.4479L11.6747 25.064C12.6682 26.7529 12.1044 28.9274 10.4155 29.9209C8.72665 30.9143 6.55218 30.3506 5.55872 28.6617L0.490399 20.0455C-0.503062 18.3567 0.0606893 16.1822 1.74957 15.1887Z" fill="#1CB0F6"/>
<path d="M3.04149 17.7399L4.30857 19.7672M28.3831 4.0554L29.6502 6.08273M21.2875 4.0554L22.5545 6.08273M7.09615 12.1647L8.36323 14.192" stroke="#63C9F9" stroke-width="3" stroke-linecap="round"/>
</svg>
