<svg width="33" height="26" viewBox="0 0 33 26" fill="none" xmlns="http://www.w3.org/2000/svg">
<path d="M18.3401 15.7677C16.9208 15.0166 16.9208 12.9834 18.3401 12.2323L30.0645 6.02732C31.3965 5.32238 33 6.28799 33 7.79502L33 20.205C33 21.712 31.3965 22.6776 30.0645 21.9727L18.3401 15.7677Z" fill="#A568CC"/>
<rect y="3" width="24" height="23" rx="5" fill="#A568CC"/>
<path d="M18.3401 12.7677C16.9208 12.0166 16.9208 9.98344 18.3401 9.2323L30.0645 3.02732C31.3965 2.32238 33 3.28799 33 4.79502L33 17.205C33 18.712 31.3965 19.6776 30.0645 18.9727L18.3401 12.7677Z" fill="white"/>
<mask id="mask0_9_798" style="mask-type:alpha" maskUnits="userSpaceOnUse" x="17" y="2" width="16" height="18">
<path d="M18.3401 12.7677C16.9208 12.0166 16.9208 9.98344 18.3401 9.2323L30.0645 3.02732C31.3965 2.32238 33 3.28799 33 4.79502L33 17.205C33 18.712 31.3965 19.6776 30.0645 18.9727L18.3401 12.7677Z" fill="white"/>
</mask>
<g mask="url(#mask0_9_798)">
<rect x="21" y="3" width="6" height="16" fill="#DBC3EB"/>
</g>
<rect width="24" height="23" rx="5" fill="white"/>
</svg>
